<mxfile host="app.diagrams.net" agent="Mozilla/5.0 (X11; Linux x86_64; rv:133.0) Gecko/20100101 Firefox/133.0" version="25.0.3">
  <diagram name="Page-1" id="EBkRX6VdQkPwUTrhjRAD">
    <mxGraphModel dx="1857" dy="558" grid="1" gridSize="10" guides="1" tooltips="1" connect="1" arrows="1" fold="1" page="1" pageScale="1" pageWidth="850" pageHeight="1100" math="0" shadow="0">
      <root>
        <mxCell id="0" />
        <mxCell id="1" parent="0" />
        <mxCell id="nUbWLKR1j6jSYPVxRU5k-1" value="hkco:errorSource: xsd:string" style="rounded=0;whiteSpace=wrap;html=1;snapToPoint=1;points=[[0.1,0],[0.2,0],[0.3,0],[0.4,0],[0.5,0],[0.6,0],[0.7,0],[0.8,0],[0.9,0],[0,0.1],[0,0.3],[0,0.5],[0,0.7],[0,0.9],[0.1,1],[0.2,1],[0.3,1],[0.4,1],[0.5,1],[0.6,1],[0.7,1],[0.8,1],[0.9,1],[1,0.1],[1,0.3],[1,0.5],[1,0.7],[1,0.9]];dashed=1;" vertex="1" parent="1">
          <mxGeometry x="220" y="588.9999999999999" width="179" height="30" as="geometry" />
        </mxCell>
        <mxCell id="nUbWLKR1j6jSYPVxRU5k-2" value="hkco:Error" style="rounded=0;whiteSpace=wrap;html=1;snapToPoint=1;points=[[0.1,0],[0.2,0],[0.3,0],[0.4,0],[0.5,0],[0.6,0],[0.7,0],[0.8,0],[0.9,0],[0,0.1],[0,0.3],[0,0.5],[0,0.7],[0,0.9],[0.1,1],[0.2,1],[0.3,1],[0.4,1],[0.5,1],[0.6,1],[0.7,1],[0.8,1],[0.9,1],[1,0.1],[1,0.3],[1,0.5],[1,0.7],[1,0.9]];" vertex="1" parent="1">
          <mxGeometry x="220" y="558.9999999999999" width="179" height="30" as="geometry" />
        </mxCell>
        <mxCell id="nUbWLKR1j6jSYPVxRU5k-3" value="hkco:errorNature: xsd:string" style="rounded=0;whiteSpace=wrap;html=1;snapToPoint=1;points=[[0.1,0],[0.2,0],[0.3,0],[0.4,0],[0.5,0],[0.6,0],[0.7,0],[0.8,0],[0.9,0],[0,0.1],[0,0.3],[0,0.5],[0,0.7],[0,0.9],[0.1,1],[0.2,1],[0.3,1],[0.4,1],[0.5,1],[0.6,1],[0.7,1],[0.8,1],[0.9,1],[1,0.1],[1,0.3],[1,0.5],[1,0.7],[1,0.9]];dashed=1;" vertex="1" parent="1">
          <mxGeometry x="220" y="618.9999999999999" width="179" height="30" as="geometry" />
        </mxCell>
        <mxCell id="nUbWLKR1j6jSYPVxRU5k-4" value="hkco:errorType: xsd:string" style="rounded=0;whiteSpace=wrap;html=1;snapToPoint=1;points=[[0.1,0],[0.2,0],[0.3,0],[0.4,0],[0.5,0],[0.6,0],[0.7,0],[0.8,0],[0.9,0],[0,0.1],[0,0.3],[0,0.5],[0,0.7],[0,0.9],[0.1,1],[0.2,1],[0.3,1],[0.4,1],[0.5,1],[0.6,1],[0.7,1],[0.8,1],[0.9,1],[1,0.1],[1,0.3],[1,0.5],[1,0.7],[1,0.9]];dashed=1;" vertex="1" parent="1">
          <mxGeometry x="220" y="648.9999999999999" width="179" height="30" as="geometry" />
        </mxCell>
        <mxCell id="nUbWLKR1j6jSYPVxRU5k-5" value="hkco:publicationYear: xsd:string" style="rounded=0;whiteSpace=wrap;html=1;snapToPoint=1;points=[[0.1,0],[0.2,0],[0.3,0],[0.4,0],[0.5,0],[0.6,0],[0.7,0],[0.8,0],[0.9,0],[0,0.1],[0,0.3],[0,0.5],[0,0.7],[0,0.9],[0.1,1],[0.2,1],[0.3,1],[0.4,1],[0.5,1],[0.6,1],[0.7,1],[0.8,1],[0.9,1],[1,0.1],[1,0.3],[1,0.5],[1,0.7],[1,0.9]];dashed=1;" vertex="1" parent="1">
          <mxGeometry x="-80" y="430" width="210" height="30" as="geometry" />
        </mxCell>
        <mxCell id="nUbWLKR1j6jSYPVxRU5k-6" value="hkco:Publication" style="rounded=0;whiteSpace=wrap;html=1;snapToPoint=1;points=[[0.1,0],[0.2,0],[0.3,0],[0.4,0],[0.5,0],[0.6,0],[0.7,0],[0.8,0],[0.9,0],[0,0.1],[0,0.3],[0,0.5],[0,0.7],[0,0.9],[0.1,1],[0.2,1],[0.3,1],[0.4,1],[0.5,1],[0.6,1],[0.7,1],[0.8,1],[0.9,1],[1,0.1],[1,0.3],[1,0.5],[1,0.7],[1,0.9]];" vertex="1" parent="1">
          <mxGeometry x="-80" y="400" width="210" height="30" as="geometry" />
        </mxCell>
        <mxCell id="nUbWLKR1j6jSYPVxRU5k-7" value="hkco:publicationCitation: xsd:string" style="rounded=0;whiteSpace=wrap;html=1;snapToPoint=1;points=[[0.1,0],[0.2,0],[0.3,0],[0.4,0],[0.5,0],[0.6,0],[0.7,0],[0.8,0],[0.9,0],[0,0.1],[0,0.3],[0,0.5],[0,0.7],[0,0.9],[0.1,1],[0.2,1],[0.3,1],[0.4,1],[0.5,1],[0.6,1],[0.7,1],[0.8,1],[0.9,1],[1,0.1],[1,0.3],[1,0.5],[1,0.7],[1,0.9]];dashed=1;" vertex="1" parent="1">
          <mxGeometry x="-80" y="460" width="210" height="30" as="geometry" />
        </mxCell>
        <mxCell id="nUbWLKR1j6jSYPVxRU5k-8" value="hkco:implementationSource: xsd:string" style="rounded=0;whiteSpace=wrap;html=1;snapToPoint=1;points=[[0.1,0],[0.2,0],[0.3,0],[0.4,0],[0.5,0],[0.6,0],[0.7,0],[0.8,0],[0.9,0],[0,0.1],[0,0.3],[0,0.5],[0,0.7],[0,0.9],[0.1,1],[0.2,1],[0.3,1],[0.4,1],[0.5,1],[0.6,1],[0.7,1],[0.8,1],[0.9,1],[1,0.1],[1,0.3],[1,0.5],[1,0.7],[1,0.9]];dashed=1;" vertex="1" parent="1">
          <mxGeometry x="-80" y="490" width="210" height="30" as="geometry" />
        </mxCell>
        <mxCell id="nUbWLKR1j6jSYPVxRU5k-9" value="hkco:Approach" style="rounded=0;whiteSpace=wrap;html=1;snapToPoint=1;points=[[0.1,0],[0.2,0],[0.3,0],[0.4,0],[0.5,0],[0.6,0],[0.7,0],[0.8,0],[0.9,0],[0,0.1],[0,0.3],[0,0.5],[0,0.7],[0,0.9],[0.1,1],[0.2,1],[0.3,1],[0.4,1],[0.5,1],[0.6,1],[0.7,1],[0.8,1],[0.9,1],[1,0.1],[1,0.3],[1,0.5],[1,0.7],[1,0.9]];" vertex="1" parent="1">
          <mxGeometry x="-35" y="280.0000000000002" width="120" height="30" as="geometry" />
        </mxCell>
        <mxCell id="nUbWLKR1j6jSYPVxRU5k-10" value="" style="endArrow=classic;html=1;exitX=0.5;exitY=1;exitDx=0;exitDy=0;entryX=0.5;entryY=0;entryDx=0;entryDy=0;endSize=8;arcSize=0;rounded=0;" edge="1" parent="1" source="nUbWLKR1j6jSYPVxRU5k-9" target="nUbWLKR1j6jSYPVxRU5k-6">
          <mxGeometry width="50" height="50" relative="1" as="geometry">
            <mxPoint x="240" y="510" as="sourcePoint" />
            <mxPoint x="437" y="510" as="targetPoint" />
          </mxGeometry>
        </mxCell>
        <mxCell id="nUbWLKR1j6jSYPVxRU5k-11" value="&lt;div&gt;hkco:isPublished&lt;br&gt;&lt;/div&gt;" style="text;html=1;align=center;verticalAlign=middle;resizable=0;points=[];labelBackgroundColor=#ffffff;" vertex="1" connectable="0" parent="nUbWLKR1j6jSYPVxRU5k-10">
          <mxGeometry x="-0.1269" relative="1" as="geometry">
            <mxPoint as="offset" />
          </mxGeometry>
        </mxCell>
        <mxCell id="nUbWLKR1j6jSYPVxRU5k-12" value="hkco:Dimension" style="rounded=0;whiteSpace=wrap;html=1;snapToPoint=1;points=[[0.1,0],[0.2,0],[0.3,0],[0.4,0],[0.5,0],[0.6,0],[0.7,0],[0.8,0],[0.9,0],[0,0.1],[0,0.3],[0,0.5],[0,0.7],[0,0.9],[0.1,1],[0.2,1],[0.3,1],[0.4,1],[0.5,1],[0.6,1],[0.7,1],[0.8,1],[0.9,1],[1,0.1],[1,0.3],[1,0.5],[1,0.7],[1,0.9]];" vertex="1" parent="1">
          <mxGeometry x="249.5" y="399.0000000000002" width="120" height="30" as="geometry" />
        </mxCell>
        <mxCell id="nUbWLKR1j6jSYPVxRU5k-13" value="" style="endArrow=classic;html=1;exitX=0.5;exitY=1;exitDx=0;exitDy=0;entryX=0.5;entryY=0;entryDx=0;entryDy=0;endSize=8;arcSize=0;rounded=0;" edge="1" parent="1" source="nUbWLKR1j6jSYPVxRU5k-12" target="nUbWLKR1j6jSYPVxRU5k-2">
          <mxGeometry width="50" height="50" relative="1" as="geometry">
            <mxPoint x="470" y="449" as="sourcePoint" />
            <mxPoint x="470" y="549" as="targetPoint" />
          </mxGeometry>
        </mxCell>
        <mxCell id="nUbWLKR1j6jSYPVxRU5k-14" value="&lt;div&gt;hkco:targets&lt;br&gt;&lt;/div&gt;" style="text;html=1;align=center;verticalAlign=middle;resizable=0;points=[];labelBackgroundColor=#ffffff;" vertex="1" connectable="0" parent="nUbWLKR1j6jSYPVxRU5k-13">
          <mxGeometry x="-0.1269" relative="1" as="geometry">
            <mxPoint as="offset" />
          </mxGeometry>
        </mxCell>
        <mxCell id="nUbWLKR1j6jSYPVxRU5k-15" value="" style="endArrow=classic;html=1;exitX=1;exitY=0.5;exitDx=0;exitDy=0;entryX=0;entryY=0.1;entryDx=0;entryDy=0;endSize=8;arcSize=0;rounded=0;" edge="1" parent="1" source="nUbWLKR1j6jSYPVxRU5k-9" target="nUbWLKR1j6jSYPVxRU5k-12">
          <mxGeometry width="50" height="50" relative="1" as="geometry">
            <mxPoint x="160" y="410" as="sourcePoint" />
            <mxPoint x="160" y="510" as="targetPoint" />
          </mxGeometry>
        </mxCell>
        <mxCell id="nUbWLKR1j6jSYPVxRU5k-16" value="&lt;div&gt;hkco:hasDimension&lt;br&gt;&lt;/div&gt;" style="text;html=1;align=center;verticalAlign=middle;resizable=0;points=[];labelBackgroundColor=#ffffff;" vertex="1" connectable="0" parent="nUbWLKR1j6jSYPVxRU5k-15">
          <mxGeometry x="-0.1269" relative="1" as="geometry">
            <mxPoint x="5" y="8" as="offset" />
          </mxGeometry>
        </mxCell>
        <mxCell id="nUbWLKR1j6jSYPVxRU5k-17" value="hkco:Technique" style="rounded=0;whiteSpace=wrap;html=1;snapToPoint=1;points=[[0.1,0],[0.2,0],[0.3,0],[0.4,0],[0.5,0],[0.6,0],[0.7,0],[0.8,0],[0.9,0],[0,0.1],[0,0.3],[0,0.5],[0,0.7],[0,0.9],[0.1,1],[0.2,1],[0.3,1],[0.4,1],[0.5,1],[0.6,1],[0.7,1],[0.8,1],[0.9,1],[1,0.1],[1,0.3],[1,0.5],[1,0.7],[1,0.9]];" vertex="1" parent="1">
          <mxGeometry x="249.5" y="279.0000000000002" width="120" height="30" as="geometry" />
        </mxCell>
        <mxCell id="nUbWLKR1j6jSYPVxRU5k-18" value="" style="endArrow=classic;html=1;exitX=1;exitY=0.5;exitDx=0;exitDy=0;entryX=0;entryY=0.5;entryDx=0;entryDy=0;endSize=8;arcSize=0;rounded=0;" edge="1" parent="1" source="nUbWLKR1j6jSYPVxRU5k-9" target="nUbWLKR1j6jSYPVxRU5k-17">
          <mxGeometry width="50" height="50" relative="1" as="geometry">
            <mxPoint x="200" y="270" as="sourcePoint" />
            <mxPoint x="200" y="370" as="targetPoint" />
          </mxGeometry>
        </mxCell>
        <mxCell id="nUbWLKR1j6jSYPVxRU5k-19" value="&lt;div&gt;hkco:implements&lt;br&gt;&lt;/div&gt;" style="text;html=1;align=center;verticalAlign=middle;resizable=0;points=[];labelBackgroundColor=#ffffff;" vertex="1" connectable="0" parent="nUbWLKR1j6jSYPVxRU5k-18">
          <mxGeometry x="-0.1269" relative="1" as="geometry">
            <mxPoint as="offset" />
          </mxGeometry>
        </mxCell>
        <mxCell id="nUbWLKR1j6jSYPVxRU5k-20" value="" style="endArrow=classic;html=1;exitX=0.5;exitY=1;exitDx=0;exitDy=0;entryX=0.5;entryY=0;entryDx=0;entryDy=0;endSize=8;arcSize=0;rounded=0;" edge="1" parent="1" source="nUbWLKR1j6jSYPVxRU5k-17" target="nUbWLKR1j6jSYPVxRU5k-12">
          <mxGeometry width="50" height="50" relative="1" as="geometry">
            <mxPoint x="140" y="309" as="sourcePoint" />
            <mxPoint x="285" y="309" as="targetPoint" />
          </mxGeometry>
        </mxCell>
        <mxCell id="nUbWLKR1j6jSYPVxRU5k-21" value="&lt;div&gt;hkco:hasDimension&lt;br&gt;&lt;/div&gt;" style="text;html=1;align=center;verticalAlign=middle;resizable=0;points=[];labelBackgroundColor=#ffffff;" vertex="1" connectable="0" parent="nUbWLKR1j6jSYPVxRU5k-20">
          <mxGeometry x="-0.1269" relative="1" as="geometry">
            <mxPoint as="offset" />
          </mxGeometry>
        </mxCell>
        <mxCell id="nUbWLKR1j6jSYPVxRU5k-22" value="hkco:KnowledgeGraph" style="rounded=0;whiteSpace=wrap;html=1;snapToPoint=1;points=[[0.1,0],[0.2,0],[0.3,0],[0.4,0],[0.5,0],[0.6,0],[0.7,0],[0.8,0],[0.9,0],[0,0.1],[0,0.3],[0,0.5],[0,0.7],[0,0.9],[0.1,1],[0.2,1],[0.3,1],[0.4,1],[0.5,1],[0.6,1],[0.7,1],[0.8,1],[0.9,1],[1,0.1],[1,0.3],[1,0.5],[1,0.7],[1,0.9]];" vertex="1" parent="1">
          <mxGeometry x="557" y="559.9999999999999" width="179" height="30" as="geometry" />
        </mxCell>
        <mxCell id="nUbWLKR1j6jSYPVxRU5k-23" value="" style="endArrow=classic;html=1;entryX=1;entryY=0.5;entryDx=0;entryDy=0;endSize=8;arcSize=0;rounded=0;exitX=0;exitY=0.5;exitDx=0;exitDy=0;" edge="1" parent="1" source="nUbWLKR1j6jSYPVxRU5k-22" target="nUbWLKR1j6jSYPVxRU5k-2">
          <mxGeometry width="50" height="50" relative="1" as="geometry">
            <mxPoint x="520" y="544.5" as="sourcePoint" />
            <mxPoint x="379" y="544.5" as="targetPoint" />
          </mxGeometry>
        </mxCell>
        <mxCell id="nUbWLKR1j6jSYPVxRU5k-24" value="&lt;div&gt;hkco:hasError&lt;br&gt;&lt;/div&gt;" style="text;html=1;align=center;verticalAlign=middle;resizable=0;points=[];labelBackgroundColor=#ffffff;" vertex="1" connectable="0" parent="nUbWLKR1j6jSYPVxRU5k-23">
          <mxGeometry x="-0.1269" relative="1" as="geometry">
            <mxPoint as="offset" />
          </mxGeometry>
        </mxCell>
        <mxCell id="nUbWLKR1j6jSYPVxRU5k-25" value="hkco:QualitySpecification" style="rounded=0;whiteSpace=wrap;html=1;snapToPoint=1;points=[[0.1,0],[0.2,0],[0.3,0],[0.4,0],[0.5,0],[0.6,0],[0.7,0],[0.8,0],[0.9,0],[0,0.1],[0,0.3],[0,0.5],[0,0.7],[0,0.9],[0.1,1],[0.2,1],[0.3,1],[0.4,1],[0.5,1],[0.6,1],[0.7,1],[0.8,1],[0.9,1],[1,0.1],[1,0.3],[1,0.5],[1,0.7],[1,0.9]];" vertex="1" parent="1">
          <mxGeometry x="557" y="399.9999999999999" width="179" height="30" as="geometry" />
        </mxCell>
        <mxCell id="nUbWLKR1j6jSYPVxRU5k-26" value="" style="endArrow=classic;html=1;endSize=8;arcSize=0;rounded=0;exitX=1;exitY=0.5;exitDx=0;exitDy=0;entryX=0;entryY=0.5;entryDx=0;entryDy=0;" edge="1" parent="1" source="nUbWLKR1j6jSYPVxRU5k-12" target="nUbWLKR1j6jSYPVxRU5k-25">
          <mxGeometry width="50" height="50" relative="1" as="geometry">
            <mxPoint x="511" y="429" as="sourcePoint" />
            <mxPoint x="500" y="380" as="targetPoint" />
          </mxGeometry>
        </mxCell>
        <mxCell id="nUbWLKR1j6jSYPVxRU5k-27" value="&lt;div&gt;hkco:requires&lt;br&gt;&lt;/div&gt;" style="text;html=1;align=center;verticalAlign=middle;resizable=0;points=[];labelBackgroundColor=#ffffff;" vertex="1" connectable="0" parent="nUbWLKR1j6jSYPVxRU5k-26">
          <mxGeometry x="-0.1269" relative="1" as="geometry">
            <mxPoint as="offset" />
          </mxGeometry>
        </mxCell>
        <mxCell id="nUbWLKR1j6jSYPVxRU5k-29" value="" style="endArrow=classic;html=1;exitX=0.5;exitY=0;exitDx=0;exitDy=0;endSize=8;arcSize=0;rounded=0;entryX=0.5;entryY=1;entryDx=0;entryDy=0;" edge="1" parent="1" source="nUbWLKR1j6jSYPVxRU5k-22" target="nUbWLKR1j6jSYPVxRU5k-37">
          <mxGeometry width="50" height="50" relative="1" as="geometry">
            <mxPoint x="677" y="590" as="sourcePoint" />
            <mxPoint x="647" y="490" as="targetPoint" />
          </mxGeometry>
        </mxCell>
        <mxCell id="nUbWLKR1j6jSYPVxRU5k-30" value="&lt;div&gt;hkco:hasQuality&lt;br&gt;&lt;/div&gt;" style="text;html=1;align=center;verticalAlign=middle;resizable=0;points=[];labelBackgroundColor=#ffffff;" vertex="1" connectable="0" parent="nUbWLKR1j6jSYPVxRU5k-29">
          <mxGeometry x="-0.1269" relative="1" as="geometry">
            <mxPoint as="offset" />
          </mxGeometry>
        </mxCell>
        <mxCell id="nUbWLKR1j6jSYPVxRU5k-31" value="hkco:BackgroundKnowledge" style="rounded=0;whiteSpace=wrap;html=1;snapToPoint=1;points=[[0.1,0],[0.2,0],[0.3,0],[0.4,0],[0.5,0],[0.6,0],[0.7,0],[0.8,0],[0.9,0],[0,0.1],[0,0.3],[0,0.5],[0,0.7],[0,0.9],[0.1,1],[0.2,1],[0.3,1],[0.4,1],[0.5,1],[0.6,1],[0.7,1],[0.8,1],[0.9,1],[1,0.1],[1,0.3],[1,0.5],[1,0.7],[1,0.9]];" vertex="1" parent="1">
          <mxGeometry x="480.5" y="280" width="255.5" height="30" as="geometry" />
        </mxCell>
        <mxCell id="nUbWLKR1j6jSYPVxRU5k-32" value="" style="endArrow=classic;html=1;entryX=0.5;entryY=0;entryDx=0;entryDy=0;endSize=8;arcSize=0;rounded=0;exitX=0.648;exitY=0.967;exitDx=0;exitDy=0;exitPerimeter=0;" edge="1" parent="1" source="nUbWLKR1j6jSYPVxRU5k-39" target="nUbWLKR1j6jSYPVxRU5k-25">
          <mxGeometry width="50" height="50" relative="1" as="geometry">
            <mxPoint x="510" y="350" as="sourcePoint" />
            <mxPoint x="500" y="240" as="targetPoint" />
          </mxGeometry>
        </mxCell>
        <mxCell id="nUbWLKR1j6jSYPVxRU5k-33" value="&lt;div&gt;hkco:hasQuality&lt;br&gt;&lt;/div&gt;" style="text;html=1;align=center;verticalAlign=middle;resizable=0;points=[];labelBackgroundColor=#ffffff;" vertex="1" connectable="0" parent="nUbWLKR1j6jSYPVxRU5k-32">
          <mxGeometry x="-0.1269" relative="1" as="geometry">
            <mxPoint as="offset" />
          </mxGeometry>
        </mxCell>
        <mxCell id="nUbWLKR1j6jSYPVxRU5k-34" value="" style="endArrow=classic;html=1;endSize=8;arcSize=0;rounded=0;exitX=1;exitY=0.5;exitDx=0;exitDy=0;entryX=0;entryY=0.5;entryDx=0;entryDy=0;" edge="1" parent="1" source="nUbWLKR1j6jSYPVxRU5k-17" target="nUbWLKR1j6jSYPVxRU5k-31">
          <mxGeometry width="50" height="50" relative="1" as="geometry">
            <mxPoint x="90" y="240" as="sourcePoint" />
            <mxPoint x="260" y="240" as="targetPoint" />
          </mxGeometry>
        </mxCell>
        <mxCell id="nUbWLKR1j6jSYPVxRU5k-35" value="&lt;div&gt;hkco:requires&lt;br&gt;&lt;/div&gt;" style="text;html=1;align=center;verticalAlign=middle;resizable=0;points=[];labelBackgroundColor=#ffffff;" vertex="1" connectable="0" parent="nUbWLKR1j6jSYPVxRU5k-34">
          <mxGeometry x="-0.1269" relative="1" as="geometry">
            <mxPoint as="offset" />
          </mxGeometry>
        </mxCell>
        <mxCell id="nUbWLKR1j6jSYPVxRU5k-36" value="hkco:qualityMeasure: xsd:string" style="rounded=0;whiteSpace=wrap;html=1;snapToPoint=1;points=[[0.1,0],[0.2,0],[0.3,0],[0.4,0],[0.5,0],[0.6,0],[0.7,0],[0.8,0],[0.9,0],[0,0.1],[0,0.3],[0,0.5],[0,0.7],[0,0.9],[0.1,1],[0.2,1],[0.3,1],[0.4,1],[0.5,1],[0.6,1],[0.7,1],[0.8,1],[0.9,1],[1,0.1],[1,0.3],[1,0.5],[1,0.7],[1,0.9]];dashed=1;" vertex="1" parent="1">
          <mxGeometry x="557" y="429.9999999999999" width="179" height="30" as="geometry" />
        </mxCell>
        <mxCell id="nUbWLKR1j6jSYPVxRU5k-37" value="hkco:measureValue: xsd:string" style="rounded=0;whiteSpace=wrap;html=1;snapToPoint=1;points=[[0.1,0],[0.2,0],[0.3,0],[0.4,0],[0.5,0],[0.6,0],[0.7,0],[0.8,0],[0.9,0],[0,0.1],[0,0.3],[0,0.5],[0,0.7],[0,0.9],[0.1,1],[0.2,1],[0.3,1],[0.4,1],[0.5,1],[0.6,1],[0.7,1],[0.8,1],[0.9,1],[1,0.1],[1,0.3],[1,0.5],[1,0.7],[1,0.9]];dashed=1;" vertex="1" parent="1">
          <mxGeometry x="557" y="459.9999999999999" width="179" height="30" as="geometry" />
        </mxCell>
        <mxCell id="nUbWLKR1j6jSYPVxRU5k-39" value="hkco:isKnowledgeGraphFeature: xsd:boolean" style="rounded=0;whiteSpace=wrap;html=1;snapToPoint=1;points=[[0.1,0],[0.2,0],[0.3,0],[0.4,0],[0.5,0],[0.6,0],[0.7,0],[0.8,0],[0.9,0],[0,0.1],[0,0.3],[0,0.5],[0,0.7],[0,0.9],[0.1,1],[0.2,1],[0.3,1],[0.4,1],[0.5,1],[0.6,1],[0.7,1],[0.8,1],[0.9,1],[1,0.1],[1,0.3],[1,0.5],[1,0.7],[1,0.9]];dashed=1;" vertex="1" parent="1">
          <mxGeometry x="480.5" y="310" width="255.5" height="30" as="geometry" />
        </mxCell>
        <mxCell id="nUbWLKR1j6jSYPVxRU5k-41" value="hkco:ApplicationAlgorithm" style="rounded=0;whiteSpace=wrap;html=1;snapToPoint=1;points=[[0.1,0],[0.2,0],[0.3,0],[0.4,0],[0.5,0],[0.6,0],[0.7,0],[0.8,0],[0.9,0],[0,0.1],[0,0.3],[0,0.5],[0,0.7],[0,0.9],[0.1,1],[0.2,1],[0.3,1],[0.4,1],[0.5,1],[0.6,1],[0.7,1],[0.8,1],[0.9,1],[1,0.1],[1,0.3],[1,0.5],[1,0.7],[1,0.9]];" vertex="1" parent="1">
          <mxGeometry x="571.5" y="711" width="150" height="30" as="geometry" />
        </mxCell>
        <mxCell id="nUbWLKR1j6jSYPVxRU5k-42" value="hkco:ApplicationLogic" style="rounded=0;whiteSpace=wrap;html=1;snapToPoint=1;points=[[0.1,0],[0.2,0],[0.3,0],[0.4,0],[0.5,0],[0.6,0],[0.7,0],[0.8,0],[0.9,0],[0,0.1],[0,0.3],[0,0.5],[0,0.7],[0,0.9],[0.1,1],[0.2,1],[0.3,1],[0.4,1],[0.5,1],[0.6,1],[0.7,1],[0.8,1],[0.9,1],[1,0.1],[1,0.3],[1,0.5],[1,0.7],[1,0.9]];" vertex="1" parent="1">
          <mxGeometry x="-50" y="711" width="150" height="30" as="geometry" />
        </mxCell>
        <mxCell id="nUbWLKR1j6jSYPVxRU5k-43" value="hkco:ApplicationCondition" style="rounded=0;whiteSpace=wrap;html=1;snapToPoint=1;points=[[0.1,0],[0.2,0],[0.3,0],[0.4,0],[0.5,0],[0.6,0],[0.7,0],[0.8,0],[0.9,0],[0,0.1],[0,0.3],[0,0.5],[0,0.7],[0,0.9],[0.1,1],[0.2,1],[0.3,1],[0.4,1],[0.5,1],[0.6,1],[0.7,1],[0.8,1],[0.9,1],[1,0.1],[1,0.3],[1,0.5],[1,0.7],[1,0.9]];" vertex="1" parent="1">
          <mxGeometry x="-50" y="811" width="150" height="30" as="geometry" />
        </mxCell>
        <mxCell id="nUbWLKR1j6jSYPVxRU5k-44" value="" style="endArrow=open;html=1;fontColor=#000099;endFill=0;dashed=1;entryX=0.5;entryY=1;entryDx=0;entryDy=0;endSize=8;arcSize=0;rounded=0;exitX=0.5;exitY=0;exitDx=0;exitDy=0;" edge="1" source="nUbWLKR1j6jSYPVxRU5k-43" target="nUbWLKR1j6jSYPVxRU5k-42" parent="1">
          <mxGeometry width="50" height="50" relative="1" as="geometry">
            <mxPoint x="30" y="801" as="sourcePoint" />
            <mxPoint x="30" y="771" as="targetPoint" />
          </mxGeometry>
        </mxCell>
        <mxCell id="nUbWLKR1j6jSYPVxRU5k-45" value="&amp;lt;&amp;lt;rdfs:subClassOf&amp;gt;&amp;gt;" style="text;html=1;align=center;verticalAlign=middle;resizable=0;points=[];fontColor=#000000;labelBackgroundColor=#ffffff;" vertex="1" connectable="0" parent="nUbWLKR1j6jSYPVxRU5k-44">
          <mxGeometry x="-0.3277" relative="1" as="geometry">
            <mxPoint y="-7.14" as="offset" />
          </mxGeometry>
        </mxCell>
        <mxCell id="nUbWLKR1j6jSYPVxRU5k-49" value="hkco:ApplicationTask" style="rounded=0;whiteSpace=wrap;html=1;snapToPoint=1;points=[[0.1,0],[0.2,0],[0.3,0],[0.4,0],[0.5,0],[0.6,0],[0.7,0],[0.8,0],[0.9,0],[0,0.1],[0,0.3],[0,0.5],[0,0.7],[0,0.9],[0.1,1],[0.2,1],[0.3,1],[0.4,1],[0.5,1],[0.6,1],[0.7,1],[0.8,1],[0.9,1],[1,0.1],[1,0.3],[1,0.5],[1,0.7],[1,0.9]];" vertex="1" parent="1">
          <mxGeometry x="-50" y="560" width="150" height="30" as="geometry" />
        </mxCell>
        <mxCell id="nUbWLKR1j6jSYPVxRU5k-54" value="" style="endArrow=classic;html=1;exitX=1;exitY=0.5;exitDx=0;exitDy=0;entryX=0;entryY=0.5;entryDx=0;entryDy=0;endSize=8;arcSize=0;rounded=0;" edge="1" parent="1" source="nUbWLKR1j6jSYPVxRU5k-49" target="nUbWLKR1j6jSYPVxRU5k-2">
          <mxGeometry width="50" height="50" relative="1" as="geometry">
            <mxPoint x="340" y="650" as="sourcePoint" />
            <mxPoint x="607" y="843" as="targetPoint" />
          </mxGeometry>
        </mxCell>
        <mxCell id="nUbWLKR1j6jSYPVxRU5k-55" value="&lt;div&gt;hkco:targets&lt;br&gt;&lt;/div&gt;" style="text;html=1;align=center;verticalAlign=middle;resizable=0;points=[];labelBackgroundColor=#ffffff;" vertex="1" connectable="0" parent="nUbWLKR1j6jSYPVxRU5k-54">
          <mxGeometry x="-0.1269" relative="1" as="geometry">
            <mxPoint as="offset" />
          </mxGeometry>
        </mxCell>
        <mxCell id="nUbWLKR1j6jSYPVxRU5k-59" value="" style="endArrow=classic;html=1;endSize=8;arcSize=0;rounded=0;exitX=1;exitY=0.3;exitDx=0;exitDy=0;entryX=0;entryY=0.9;entryDx=0;entryDy=0;" edge="1" parent="1" source="nUbWLKR1j6jSYPVxRU5k-49" target="nUbWLKR1j6jSYPVxRU5k-12">
          <mxGeometry width="50" height="50" relative="1" as="geometry">
            <mxPoint x="30" y="619" as="sourcePoint" />
            <mxPoint x="161" y="619" as="targetPoint" />
          </mxGeometry>
        </mxCell>
        <mxCell id="nUbWLKR1j6jSYPVxRU5k-60" value="&lt;div&gt;hkco:requires&lt;br&gt;&lt;/div&gt;" style="text;html=1;align=center;verticalAlign=middle;resizable=0;points=[];labelBackgroundColor=#ffffff;" vertex="1" connectable="0" parent="nUbWLKR1j6jSYPVxRU5k-59">
          <mxGeometry x="-0.1269" relative="1" as="geometry">
            <mxPoint x="13" y="-17" as="offset" />
          </mxGeometry>
        </mxCell>
        <mxCell id="nUbWLKR1j6jSYPVxRU5k-62" value="hkco:ConditionalLogic" style="rounded=0;whiteSpace=wrap;html=1;snapToPoint=1;points=[[0.1,0],[0.2,0],[0.3,0],[0.4,0],[0.5,0],[0.6,0],[0.7,0],[0.8,0],[0.9,0],[0,0.1],[0,0.3],[0,0.5],[0,0.7],[0,0.9],[0.1,1],[0.2,1],[0.3,1],[0.4,1],[0.5,1],[0.6,1],[0.7,1],[0.8,1],[0.9,1],[1,0.1],[1,0.3],[1,0.5],[1,0.7],[1,0.9]];" vertex="1" parent="1">
          <mxGeometry x="562.25" y="811" width="168.5" height="30" as="geometry" />
        </mxCell>
        <mxCell id="nUbWLKR1j6jSYPVxRU5k-66" value="" style="endArrow=classic;html=1;endSize=8;arcSize=0;rounded=0;exitX=0.5;exitY=0;exitDx=0;exitDy=0;" edge="1" parent="1" source="nUbWLKR1j6jSYPVxRU5k-42">
          <mxGeometry width="50" height="50" relative="1" as="geometry">
            <mxPoint x="-50" y="620" as="sourcePoint" />
            <mxPoint x="25" y="650" as="targetPoint" />
          </mxGeometry>
        </mxCell>
        <mxCell id="nUbWLKR1j6jSYPVxRU5k-67" value="&lt;div&gt;hkco:performsTask&lt;br&gt;&lt;/div&gt;" style="text;html=1;align=center;verticalAlign=middle;resizable=0;points=[];labelBackgroundColor=#ffffff;" vertex="1" connectable="0" parent="nUbWLKR1j6jSYPVxRU5k-66">
          <mxGeometry x="-0.1269" relative="1" as="geometry">
            <mxPoint as="offset" />
          </mxGeometry>
        </mxCell>
        <mxCell id="nUbWLKR1j6jSYPVxRU5k-68" value="" style="endArrow=classic;html=1;endSize=8;arcSize=0;rounded=0;exitX=0;exitY=0.5;exitDx=0;exitDy=0;entryX=1;entryY=0.5;entryDx=0;entryDy=0;" edge="1" parent="1" source="nUbWLKR1j6jSYPVxRU5k-41" target="nUbWLKR1j6jSYPVxRU5k-42">
          <mxGeometry width="50" height="50" relative="1" as="geometry">
            <mxPoint x="479.5" y="776" as="sourcePoint" />
            <mxPoint x="479.5" y="676" as="targetPoint" />
          </mxGeometry>
        </mxCell>
        <mxCell id="nUbWLKR1j6jSYPVxRU5k-69" value="&lt;div&gt;hkco:appliesLogic&lt;br&gt;&lt;/div&gt;" style="text;html=1;align=center;verticalAlign=middle;resizable=0;points=[];labelBackgroundColor=#ffffff;" vertex="1" connectable="0" parent="nUbWLKR1j6jSYPVxRU5k-68">
          <mxGeometry x="-0.1269" relative="1" as="geometry">
            <mxPoint x="-55" as="offset" />
          </mxGeometry>
        </mxCell>
        <mxCell id="nUbWLKR1j6jSYPVxRU5k-70" value="" style="endArrow=classic;html=1;endSize=8;arcSize=0;rounded=0;exitX=0.1;exitY=0;exitDx=0;exitDy=0;entryX=1;entryY=0.9;entryDx=0;entryDy=0;" edge="1" parent="1" source="nUbWLKR1j6jSYPVxRU5k-62" target="nUbWLKR1j6jSYPVxRU5k-42">
          <mxGeometry width="50" height="50" relative="1" as="geometry">
            <mxPoint x="572" y="781" as="sourcePoint" />
            <mxPoint x="100" y="781" as="targetPoint" />
          </mxGeometry>
        </mxCell>
        <mxCell id="nUbWLKR1j6jSYPVxRU5k-71" value="&lt;div&gt;hkco:followedLogic&lt;br&gt;&lt;/div&gt;" style="text;html=1;align=center;verticalAlign=middle;resizable=0;points=[];labelBackgroundColor=#ffffff;" vertex="1" connectable="0" parent="nUbWLKR1j6jSYPVxRU5k-70">
          <mxGeometry x="-0.1269" relative="1" as="geometry">
            <mxPoint x="-60" as="offset" />
          </mxGeometry>
        </mxCell>
        <mxCell id="nUbWLKR1j6jSYPVxRU5k-72" value="" style="endArrow=classic;html=1;endSize=8;arcSize=0;rounded=0;exitX=1;exitY=0.5;exitDx=0;exitDy=0;entryX=0;entryY=0.5;entryDx=0;entryDy=0;" edge="1" parent="1" source="nUbWLKR1j6jSYPVxRU5k-43" target="nUbWLKR1j6jSYPVxRU5k-62">
          <mxGeometry width="50" height="50" relative="1" as="geometry">
            <mxPoint x="250" y="954" as="sourcePoint" />
            <mxPoint x="60" y="881" as="targetPoint" />
          </mxGeometry>
        </mxCell>
        <mxCell id="nUbWLKR1j6jSYPVxRU5k-73" value="&lt;div&gt;hkco:conditionalLogic&lt;br&gt;&lt;/div&gt;" style="text;html=1;align=center;verticalAlign=middle;resizable=0;points=[];labelBackgroundColor=#ffffff;" vertex="1" connectable="0" parent="nUbWLKR1j6jSYPVxRU5k-72">
          <mxGeometry x="-0.1269" relative="1" as="geometry">
            <mxPoint x="13" as="offset" />
          </mxGeometry>
        </mxCell>
        <mxCell id="nUbWLKR1j6jSYPVxRU5k-76" value="hkco:logicCondition: xsd:string" style="rounded=0;whiteSpace=wrap;html=1;snapToPoint=1;points=[[0.1,0],[0.2,0],[0.3,0],[0.4,0],[0.5,0],[0.6,0],[0.7,0],[0.8,0],[0.9,0],[0,0.1],[0,0.3],[0,0.5],[0,0.7],[0,0.9],[0.1,1],[0.2,1],[0.3,1],[0.4,1],[0.5,1],[0.6,1],[0.7,1],[0.8,1],[0.9,1],[1,0.1],[1,0.3],[1,0.5],[1,0.7],[1,0.9]];dashed=1;" vertex="1" parent="1">
          <mxGeometry x="562.25" y="841" width="168.5" height="30" as="geometry" />
        </mxCell>
        <mxCell id="nUbWLKR1j6jSYPVxRU5k-78" value="&lt;div&gt;&lt;b&gt;hkco&lt;/b&gt;: https://d-workz.github.io/hkc/&lt;br&gt;&lt;/div&gt;&lt;div&gt;&lt;b&gt;rdfs:&lt;/b&gt; http://www.w3.org/2000/01/rdf-schema#&lt;br&gt;&lt;/div&gt;" style="shape=note;whiteSpace=wrap;html=1;backgroundOutline=1;darkOpacity=0.05;" vertex="1" parent="1">
          <mxGeometry x="-80" y="890" width="290" height="100" as="geometry" />
        </mxCell>
        <mxCell id="nUbWLKR1j6jSYPVxRU5k-82" value="&lt;div&gt;&lt;b style=&quot;border-color: var(--border-color);&quot;&gt;owl:Ontology&lt;/b&gt;: &amp;lt;https://d-workz.github.io/hkc/&amp;gt;&lt;b&gt;&lt;br&gt;&lt;/b&gt;&lt;/div&gt;&lt;div&gt;&lt;b&gt;&lt;br&gt;&lt;/b&gt;&lt;/div&gt;&lt;div&gt;&lt;b&gt;dc:title&lt;/b&gt;: &quot;Holistic Knowledge Cleaning Ontology (HKCO)&quot;@en &lt;br&gt;&lt;b&gt;dc:description&lt;/b&gt;: &quot;Ontology for representing relevant features of knowledge cleaning, including approaches, techniques, and others.&quot;@en &lt;br&gt;&lt;br&gt;&lt;b&gt;dc:created&lt;/b&gt;: &quot;2024-12-11&quot;^^xsd:date &lt;br&gt;&lt;b&gt;dc:creator&lt;/b&gt;: &quot;Dennis Sommer&quot;&lt;br&gt;&lt;br&gt;&lt;b&gt;dc:license&lt;/b&gt;: &amp;lt;https://creativecommons.org/licenses/by/4.0/&amp;gt;&lt;br&gt;&lt;/div&gt;&lt;div&gt;&lt;br&gt;&lt;b&gt;owl:versionInfo&lt;/b&gt;: &quot;0.0.1&quot;&lt;br&gt;&lt;/div&gt;" style="shape=document;whiteSpace=wrap;html=1;boundedLbl=1;labelBackgroundColor=#ffffff;strokeColor=#000000;fontSize=12;fontColor=#000000;size=0.1875;" vertex="1" parent="1">
          <mxGeometry x="360.75" y="890" width="370" height="250" as="geometry" />
        </mxCell>
        <mxCell id="nUbWLKR1j6jSYPVxRU5k-83" value="hkco:taskInput: xsd:string" style="rounded=0;whiteSpace=wrap;html=1;snapToPoint=1;points=[[0.1,0],[0.2,0],[0.3,0],[0.4,0],[0.5,0],[0.6,0],[0.7,0],[0.8,0],[0.9,0],[0,0.1],[0,0.3],[0,0.5],[0,0.7],[0,0.9],[0.1,1],[0.2,1],[0.3,1],[0.4,1],[0.5,1],[0.6,1],[0.7,1],[0.8,1],[0.9,1],[1,0.1],[1,0.3],[1,0.5],[1,0.7],[1,0.9]];dashed=1;" vertex="1" parent="1">
          <mxGeometry x="-50" y="590" width="150" height="30" as="geometry" />
        </mxCell>
        <mxCell id="nUbWLKR1j6jSYPVxRU5k-84" value="hkco:taskOutput: xsd:string" style="rounded=0;whiteSpace=wrap;html=1;snapToPoint=1;points=[[0.1,0],[0.2,0],[0.3,0],[0.4,0],[0.5,0],[0.6,0],[0.7,0],[0.8,0],[0.9,0],[0,0.1],[0,0.3],[0,0.5],[0,0.7],[0,0.9],[0.1,1],[0.2,1],[0.3,1],[0.4,1],[0.5,1],[0.6,1],[0.7,1],[0.8,1],[0.9,1],[1,0.1],[1,0.3],[1,0.5],[1,0.7],[1,0.9]];dashed=1;" vertex="1" parent="1">
          <mxGeometry x="-50" y="619" width="150" height="30" as="geometry" />
        </mxCell>
      </root>
    </mxGraphModel>
  </diagram>
</mxfile>
